
<svg xmlns="http://www.w3.org/2000/svg" width="48" height="48" viewBox="0 0 48 48" fill="none">
  <rect width="48" height="48" rx="8" fill="#172554"/>
  <path d="M24 12C17.373 12 12 17.373 12 24C12 30.627 17.373 36 24 36C30.627 36 36 30.627 36 24C36 17.373 30.627 12 24 12ZM24 33.6C18.697 33.6 14.4 29.303 14.4 24C14.4 18.697 18.697 14.4 24 14.4C29.303 14.4 33.6 18.697 33.6 24C33.6 29.303 29.303 33.6 24 33.6Z" fill="white"/>
  <path d="M30 24C30 27.314 27.314 30 24 30C20.686 30 18 27.314 18 24C18 20.686 20.686 18 24 18C27.314 18 30 20.686 30 24Z" fill="#8B5CF6"/>
  <path d="M24 16.8C19.918 16.8 16.8 19.918 16.8 24C16.8 28.082 19.918 31.2 24 31.2C28.082 31.2 31.2 28.082 31.2 24C31.2 19.918 28.082 16.8 24 16.8ZM24 28.8C21.258 28.8 19.2 26.742 19.2 24C19.2 21.258 21.258 19.2 24 19.2C26.742 19.2 28.8 21.258 28.8 24C28.8 26.742 26.742 28.8 24 28.8Z" fill="white"/>
</svg>
